<svg width="27" height="27" viewBox="0 0 27 27" fill="none" xmlns="http://www.w3.org/2000/svg">
<path d="M22.2563 12.6068H24.4637C24.4637 6.94494 20.1891 2.6748 14.5195 2.6748V4.88216C19.0027 4.88216 22.2563 8.13029 22.2563 12.6068Z" fill="white"/>
<path d="M14.5312 9.29727C16.8523 9.29727 17.8423 10.2873 17.8423 12.6083H20.0496C20.0496 9.04894 18.0906 7.08991 14.5312 7.08991V9.29727ZM18.308 15.3046C18.096 15.1118 17.8173 15.009 17.5308 15.0179C17.2444 15.0268 16.9726 15.1466 16.7728 15.3521L14.1317 18.0682C13.496 17.9468 12.2179 17.5484 10.9023 16.2361C9.58676 14.9194 9.18833 13.638 9.07024 13.0067L11.7842 10.3645C11.9899 10.1649 12.1099 9.89306 12.1188 9.60653C12.1276 9.32 12.0247 9.04126 11.8316 8.82931L7.75355 4.34507C7.56045 4.13245 7.29208 4.00348 7.00542 3.98555C6.71877 3.96762 6.43642 4.06215 6.21833 4.24905L3.82335 6.30299C3.63253 6.4945 3.51864 6.74938 3.50328 7.01928C3.48673 7.2952 3.17107 13.8312 8.23917 18.9015C12.6605 23.3217 18.1988 23.6451 19.7241 23.6451C19.947 23.6451 20.0838 23.6385 20.1203 23.6363C20.3901 23.6212 20.6449 23.5068 20.8355 23.3151L22.8883 20.919C23.0753 20.7011 23.17 20.4188 23.1523 20.1321C23.1346 19.8455 23.0058 19.577 22.7934 19.3838L18.308 15.3046Z" fill="white"/>
</svg>
