<svg width="27" height="28" viewBox="0 0 27 28" fill="none" xmlns="http://www.w3.org/2000/svg">
<path d="M13.4276 2.46875C11.0136 2.4716 8.69928 3.43182 6.99232 5.13879C5.28535 6.84576 4.32512 9.16009 4.32228 11.5741C4.31938 13.5468 4.96377 15.466 6.15659 17.0373C6.15659 17.0373 6.40492 17.3643 6.44548 17.4115L13.4276 25.646L20.4131 17.4073C20.4495 17.3635 20.6987 17.0373 20.6987 17.0373L20.6995 17.0348C21.8917 15.4642 22.5358 13.5459 22.533 11.5741C22.5301 9.16009 21.5699 6.84576 19.8629 5.13879C18.156 3.43182 15.8416 2.4716 13.4276 2.46875ZM13.4276 14.8851C12.7728 14.8851 12.1326 14.6909 11.5881 14.3271C11.0436 13.9633 10.6192 13.4462 10.3686 12.8412C10.118 12.2362 10.0525 11.5704 10.1802 10.9282C10.308 10.2859 10.6233 9.6959 11.0864 9.23284C11.5494 8.76979 12.1394 8.45444 12.7817 8.32668C13.424 8.19893 14.0897 8.2645 14.6947 8.5151C15.2997 8.76571 15.8168 9.19009 16.1807 9.73459C16.5445 10.2791 16.7387 10.9192 16.7387 11.5741C16.7376 12.4519 16.3884 13.2934 15.7677 13.9141C15.147 14.5349 14.3054 14.884 13.4276 14.8851Z" fill="white"/>
</svg>
