<svg width="20" height="17" viewBox="0 0 20 17" fill="none" xmlns="http://www.w3.org/2000/svg">
<path fill-rule="evenodd" clip-rule="evenodd" d="M9.75412 4.5721L9.79548 5.25405L9.1062 5.17055C6.59723 4.85045 4.40533 3.76489 2.54428 1.94172L1.63443 1.03709L1.40008 1.70512C0.903801 3.19428 1.22087 4.76695 2.25478 5.82467C2.80621 6.4092 2.68214 6.4927 1.73093 6.14477C1.40008 6.03343 1.11058 5.94992 1.08301 5.99167C0.986514 6.0891 1.31737 7.35558 1.57929 7.8566C1.93772 8.55247 2.66835 9.23442 3.46791 9.63803L4.1434 9.95813L3.34384 9.97204C2.57185 9.97204 2.54428 9.98596 2.62699 10.2782C2.9027 11.1829 3.99176 12.1432 5.20489 12.5607L6.0596 12.8529L5.31518 13.2983C4.21233 13.9385 2.91649 14.3003 1.62065 14.3282C1.0003 14.3421 0.490234 14.3978 0.490234 14.4395C0.490234 14.5787 2.17207 15.3581 3.15084 15.6643C6.08717 16.5689 9.57491 16.1792 12.1942 14.6344C14.0552 13.5349 15.9163 11.3499 16.7847 9.23442C17.2535 8.10712 17.7222 6.04734 17.7222 5.05921C17.7222 4.41901 17.7635 4.33551 18.5355 3.57005C18.9904 3.12469 19.4178 2.63759 19.5005 2.49841C19.6384 2.23398 19.6246 2.23398 18.9215 2.47058C17.7497 2.8881 17.5843 2.83243 18.1633 2.20615C18.5907 1.76079 19.1007 0.953584 19.1007 0.716988C19.1007 0.675236 18.8939 0.744823 18.6596 0.870079C18.4114 1.00925 17.86 1.21801 17.4465 1.34327L16.702 1.57987L16.0265 1.12059C15.6543 0.870079 15.1305 0.591732 14.8548 0.508228C14.1517 0.313384 13.0764 0.341219 12.4423 0.563897C10.7191 1.19018 9.63005 2.80459 9.75412 4.5721Z" fill="white"/>
</svg>
