<svg width="22" height="16" viewBox="0 0 22 16" fill="none" xmlns="http://www.w3.org/2000/svg">
<path fill-rule="evenodd" clip-rule="evenodd" d="M19.6832 0.48723C20.5877 0.735444 21.3001 1.4668 21.5419 2.39556C21.9812 4.07883 21.9812 7.59098 21.9812 7.59098C21.9812 7.59098 21.9812 11.103 21.5419 12.7864C21.3001 13.7152 20.5877 14.4465 19.6832 14.6948C18.0439 15.1458 11.4701 15.1458 11.4701 15.1458C11.4701 15.1458 4.89622 15.1458 3.25685 14.6948C2.3523 14.4465 1.63994 13.7152 1.39818 12.7864C0.958984 11.103 0.958984 7.59098 0.958984 7.59098C0.958984 7.59098 0.958984 4.07883 1.39818 2.39556C1.63994 1.4668 2.3523 0.735444 3.25685 0.48723C4.89622 0.0361328 11.4701 0.0361328 11.4701 0.0361328C11.4701 0.0361328 18.0439 0.0361328 19.6832 0.48723ZM9.49927 4.63467V11.2041L14.7548 7.91951L9.49927 4.63467Z" fill="white"/>
</svg>
