<svg width="22" height="22" viewBox="0 0 22 22" fill="none" xmlns="http://www.w3.org/2000/svg">
<path fill-rule="evenodd" clip-rule="evenodd" d="M11.2211 0.750977C8.36639 0.750977 8.00814 0.763459 6.88694 0.814482C5.76794 0.865724 5.00412 1.04288 4.33579 1.30281C3.64446 1.57129 3.05802 1.93042 2.47377 2.51489C1.88909 3.09913 1.52995 3.68557 1.2606 4.37668C1.00001 5.04524 0.822637 5.80927 0.772271 6.92784C0.722123 8.04903 0.708984 8.40751 0.708984 11.2622C0.708984 14.1168 0.721685 14.474 0.77249 15.5952C0.823951 16.7142 1.00111 17.478 1.26082 18.1464C1.52952 18.8377 1.88865 19.4241 2.47311 20.0084C3.05714 20.5931 3.64358 20.9531 4.33447 21.2215C5.00325 21.4815 5.76728 21.6586 6.88607 21.7099C8.00726 21.7609 8.3653 21.7734 11.2197 21.7734C14.0746 21.7734 14.4318 21.7609 15.553 21.7099C16.672 21.6586 17.4367 21.4815 18.1055 21.2215C18.7966 20.9531 19.3821 20.5931 19.9662 20.0084C20.5508 19.4241 20.91 18.8377 21.1793 18.1466C21.4377 17.478 21.6151 16.714 21.6677 15.5954C21.718 14.4742 21.7312 14.1168 21.7312 11.2622C21.7312 8.40751 21.718 8.04925 21.6677 6.92806C21.6151 5.80905 21.4377 5.04524 21.1793 4.3769C20.91 3.68557 20.5508 3.09913 19.9662 2.51489C19.3815 1.9302 18.7968 1.57107 18.1048 1.30281C17.4347 1.04288 16.6705 0.865724 15.5515 0.814482C14.4303 0.763459 14.0733 0.750977 11.2178 0.750977H11.2211ZM10.2781 2.64515C10.5579 2.64471 10.8702 2.64515 11.221 2.64515C14.0275 2.64515 14.3601 2.65523 15.4684 2.70559C16.4933 2.75245 17.0495 2.9237 17.42 3.06757C17.9105 3.25809 18.2602 3.48583 18.6279 3.85372C18.9958 4.22161 19.2235 4.57199 19.4145 5.06251C19.5584 5.43259 19.7298 5.98881 19.7765 7.01365C19.8268 8.12171 19.8378 8.45456 19.8378 11.2597C19.8378 14.0649 19.8268 14.3978 19.7765 15.5058C19.7296 16.5307 19.5584 17.0869 19.4145 17.457C19.224 17.9475 18.9958 18.2968 18.6279 18.6644C18.26 19.0323 17.9107 19.2601 17.42 19.4506C17.0499 19.5951 16.4933 19.7659 15.4684 19.8128C14.3604 19.8632 14.0275 19.8741 11.221 19.8741C8.41431 19.8741 8.08167 19.8632 6.97361 19.8128C5.94877 19.7655 5.39256 19.5942 5.02182 19.4504C4.53129 19.2599 4.18092 19.0321 3.81303 18.6642C3.44514 18.2963 3.21739 17.9468 3.02644 17.4561C2.88257 17.086 2.7111 16.5298 2.66446 15.505C2.61409 14.3969 2.60402 14.064 2.60402 11.2571C2.60402 8.45018 2.61409 8.11908 2.66446 7.01102C2.71132 5.98618 2.88257 5.42996 3.02644 5.05944C3.21696 4.56892 3.44514 4.21855 3.81303 3.85066C4.18092 3.48276 4.53129 3.25502 5.02182 3.06407C5.39234 2.91954 5.94877 2.74873 6.97361 2.70165C7.94327 2.65785 8.31905 2.64471 10.2781 2.64253V2.64515ZM16.8318 4.39045C16.1354 4.39045 15.5705 4.95477 15.5705 5.65136C15.5705 6.34773 16.1354 6.9127 16.8318 6.9127C17.5282 6.9127 18.0932 6.34773 18.0932 5.65136C18.0932 4.95499 17.5282 4.39045 16.8318 4.39045ZM11.2211 5.86421C8.24006 5.86421 5.82314 8.28113 5.82314 11.2621C5.82314 14.2432 8.24006 16.659 11.2211 16.659C14.2021 16.659 16.6181 14.2432 16.6181 11.2621C16.6181 8.28113 14.2021 5.86421 11.2211 5.86421ZM11.221 7.75841C13.156 7.75841 14.7248 9.32699 14.7248 11.2621C14.7248 13.1971 13.156 14.7659 11.221 14.7659C9.28588 14.7659 7.7173 13.1971 7.7173 11.2621C7.7173 9.32699 9.28588 7.75841 11.221 7.75841Z" fill="white"/>
</svg>
