<svg width="23" height="23" viewBox="0 0 23 23" fill="none" xmlns="http://www.w3.org/2000/svg">
<g clip-path="url(#clip0_181_740)">
<path fill-rule="evenodd" clip-rule="evenodd" d="M21.8036 1.91612C22.0546 2.16706 22.1396 2.53958 22.0223 2.87455L15.5555 21.3511C15.4304 21.7086 15.0997 21.9535 14.7212 21.9689C14.3428 21.9844 13.9932 21.7672 13.8394 21.4211L10.2884 13.4313L2.29863 9.88035C1.95249 9.72651 1.73533 9.37696 1.75077 8.99849C1.76621 8.62001 2.01112 8.28932 2.36864 8.16418L20.8452 1.6974C21.1801 1.58016 21.5527 1.66517 21.8036 1.91612ZM12.0902 12.936L14.5814 18.5413L18.9411 6.08515L12.0902 12.936ZM17.6346 4.77866L5.17839 9.13832L10.7837 11.6296L17.6346 4.77866Z" fill="white"/>
</g>
<defs>
<clipPath id="clip0_181_740">
<rect width="22.1718" height="22.1718" fill="white" transform="translate(0.826172 0.72168)"/>
</clipPath>
</defs>
</svg>
