<svg width="17" height="12" viewBox="0 0 17 12" fill="none" xmlns="http://www.w3.org/2000/svg">
<path d="M14.1215 1.22706C13.048 0.796181 11.9153 0.488657 10.7515 0.312152C10.7409 0.310599 10.7301 0.31194 10.7205 0.315992C10.7108 0.320043 10.7029 0.326605 10.6977 0.334776C10.5518 0.561013 10.3904 0.856932 10.2776 1.0886C9.02316 0.922097 7.74716 0.922097 6.49271 1.0886C6.36691 0.830526 6.22459 0.578853 6.06642 0.334776C6.06112 0.326694 6.05313 0.320208 6.04353 0.31617C6.03393 0.312131 6.02315 0.310731 6.01262 0.312152C4.8486 0.487712 3.71561 0.795396 2.64264 1.22706C2.63346 1.23012 2.62578 1.23588 2.62091 1.24335C0.474969 4.04779 -0.113769 6.78345 0.174909 9.48473C0.175944 9.4974 0.185256 9.51007 0.196638 9.51822C1.44626 10.3278 2.84398 10.9459 4.33022 11.3462C4.34071 11.3491 4.35199 11.349 4.36241 11.3459C4.37283 11.3428 4.38185 11.3369 4.38816 11.329C4.70684 10.9489 4.99035 10.548 5.23453 10.1263C5.23962 10.1177 5.24137 10.1078 5.2395 10.0981C5.23764 10.0885 5.23227 10.0797 5.22419 10.073C5.21884 10.0685 5.2125 10.0651 5.20556 10.063C4.75978 9.91315 4.32804 9.73313 3.91427 9.52455C3.90272 9.51882 3.89412 9.50943 3.89027 9.49831C3.88642 9.48719 3.8876 9.4752 3.89358 9.46482C3.8971 9.45809 3.90242 9.45219 3.9091 9.44763C3.99601 9.39062 4.08293 9.33089 4.1657 9.27116C4.17301 9.26602 4.18179 9.26272 4.19108 9.2616C4.20038 9.26048 4.20985 9.2616 4.21847 9.26483C6.92832 10.3472 9.86166 10.3472 12.5384 9.26483C12.5473 9.26144 12.5572 9.26025 12.5668 9.26136C12.5765 9.26248 12.5856 9.26586 12.5932 9.27116C12.676 9.33089 12.7629 9.39062 12.8498 9.44763C12.8569 9.45213 12.8625 9.45809 12.8663 9.46497C12.8701 9.47185 12.8718 9.47944 12.8714 9.48706C12.871 9.49468 12.8684 9.5021 12.864 9.50864C12.8595 9.51518 12.8532 9.52065 12.8457 9.52455C12.4329 9.73504 12.0006 9.91485 11.5534 10.0621C11.5462 10.0643 11.5398 10.068 11.5344 10.0726C11.529 10.0773 11.5249 10.083 11.5223 10.0892C11.5199 10.0953 11.519 10.1017 11.5195 10.1081C11.5201 10.1145 11.5221 10.1207 11.5254 10.1263C11.7738 10.5471 12.0583 10.9489 12.3708 11.329C12.3771 11.3369 12.3861 11.3428 12.3965 11.3459C12.407 11.349 12.4182 11.3491 12.4287 11.3462C13.9174 10.9472 15.3174 10.329 16.5685 9.51822C16.5748 9.51442 16.58 9.50944 16.5837 9.50364C16.5875 9.49785 16.5897 9.49138 16.5902 9.48473C16.9358 6.36175 16.0118 3.64871 14.1422 1.24425C14.1403 1.24028 14.1375 1.2367 14.1339 1.23374C14.1303 1.23077 14.1261 1.2285 14.1215 1.22706ZM5.6391 7.83953C4.82273 7.83953 4.15122 7.18435 4.15122 6.38075C4.15122 5.57625 4.81031 4.92107 5.6391 4.92107C6.47409 4.92107 7.13939 5.58168 7.12698 6.38075C7.12698 7.18435 6.46788 7.83953 5.6391 7.83953ZM11.1395 7.83953C10.3242 7.83953 9.65162 7.18435 9.65162 6.38075C9.65162 5.57625 10.3107 4.92107 11.1395 4.92107C11.9745 4.92107 12.6408 5.58168 12.6274 6.38075C12.6274 7.18435 11.9745 7.83953 11.1395 7.83953Z" fill="white"/>
</svg>
