<svg width="18" height="14" viewBox="0 0 18 14" fill="none" xmlns="http://www.w3.org/2000/svg">
<path d="M17.4656 1.78125C16.8568 2.03986 16.1943 2.22598 15.5118 2.29847C16.2203 1.88398 16.7509 1.22915 17.004 0.456833C16.3392 0.846299 15.6108 1.1194 14.8513 1.26402C14.5338 0.929834 14.1499 0.663606 13.7234 0.481926C13.2969 0.300245 12.837 0.207005 12.3723 0.208016C10.4922 0.208016 8.98008 1.70876 8.98008 3.5504C8.98008 3.80901 9.01192 4.06762 9.06364 4.31644C6.24841 4.17146 3.73757 2.84705 2.06833 0.819284C1.76417 1.33086 1.60479 1.91335 1.60675 2.50615C1.60675 3.66599 2.20561 4.68869 3.11882 5.29016C2.58065 5.26929 2.05508 5.12363 1.58486 4.86502V4.90616C1.58486 6.53033 2.75075 7.87629 4.3046 8.18585C4.01285 8.26047 3.71272 8.29865 3.41129 8.29948C3.19044 8.29948 2.98154 8.27793 2.77064 8.24854C3.20039 9.57296 4.45183 10.5349 5.94201 10.5663C4.77613 11.4655 3.31579 11.9945 1.7301 11.9945C1.44559 11.9945 1.18297 11.9847 0.9104 11.9534C2.41451 12.9036 4.19915 13.4522 6.12108 13.4522C12.3604 13.4522 15.7745 8.36217 15.7745 3.9442C15.7745 3.79922 15.7745 3.65423 15.7645 3.50925C16.425 3.03317 17.004 2.44345 17.4656 1.78125Z" fill="white"/>
</svg>
