<svg width="18" height="17" viewBox="0 0 18 17" fill="none" xmlns="http://www.w3.org/2000/svg">
<path fill-rule="evenodd" clip-rule="evenodd" d="M5.374 0.0496655C6.25669 0.00903009 6.53813 0 8.78662 0C11.0351 0 11.3166 0.0097826 12.1985 0.0496655C13.0804 0.0895485 13.6824 0.230268 14.2092 0.434197C14.7608 0.642642 15.2612 0.968478 15.6751 1.38988C16.0965 1.80301 16.4216 2.30268 16.6293 2.85502C16.834 3.38177 16.9739 3.98378 17.0146 4.86421C17.0552 5.74841 17.0642 6.02985 17.0642 8.27759C17.0642 10.5261 17.0544 10.8075 17.0146 11.6902C16.9747 12.5707 16.834 13.1727 16.6293 13.6994C16.4216 14.2518 16.0959 14.7523 15.6751 15.1661C15.2612 15.5875 14.7608 15.9125 14.2092 16.1202C13.6824 16.3249 13.0804 16.4649 12.2 16.5055C11.3166 16.5462 11.0351 16.5552 8.78662 16.5552C6.53813 16.5552 6.25669 16.5454 5.374 16.5055C4.49357 16.4656 3.89156 16.3249 3.3648 16.1202C2.8124 15.9125 2.31191 15.5869 1.89816 15.1661C1.47704 14.7527 1.15116 14.2524 0.943231 13.7002C0.739301 13.1734 0.599334 12.5714 0.558699 11.691C0.518063 10.8068 0.509033 10.5253 0.509033 8.27759C0.509033 6.0291 0.518816 5.74766 0.558699 4.86572C0.598582 3.98378 0.739301 3.38177 0.943231 2.85502C1.15147 2.30274 1.4776 1.80249 1.89892 1.38913C2.31207 0.968103 2.81206 0.642223 3.36405 0.434197C3.89081 0.230268 4.49281 0.090301 5.37325 0.0496655H5.374ZM12.1315 1.53963C11.2586 1.49975 10.9967 1.49147 8.78662 1.49147C6.57651 1.49147 6.31463 1.49975 5.44173 1.53963C4.63428 1.5765 4.19632 1.7112 3.90435 1.82483C3.51831 1.97533 3.24214 2.15368 2.95243 2.44339C2.6778 2.71057 2.46644 3.03583 2.33387 3.39532C2.22024 3.68729 2.08554 4.12525 2.04867 4.93269C2.00878 5.8056 2.0005 6.06747 2.0005 8.27759C2.0005 10.4877 2.00878 10.7496 2.04867 11.6225C2.08554 12.4299 2.22024 12.8679 2.33387 13.1599C2.46631 13.5188 2.67776 13.8446 2.95243 14.1118C3.21957 14.3865 3.5454 14.5979 3.90435 14.7304C4.19632 14.844 4.63428 14.9787 5.44173 15.0156C6.31463 15.0554 6.57576 15.0637 8.78662 15.0637C10.9975 15.0637 11.2586 15.0554 12.1315 15.0156C12.939 14.9787 13.3769 14.844 13.6689 14.7304C14.0549 14.5798 14.3311 14.4015 14.6208 14.1118C14.8955 13.8446 15.1069 13.5188 15.2394 13.1599C15.353 12.8679 15.4877 12.4299 15.5246 11.6225C15.5645 10.7496 15.5727 10.4877 15.5727 8.27759C15.5727 6.06747 15.5645 5.8056 15.5246 4.93269C15.4877 4.12525 15.353 3.68729 15.2394 3.39532C15.0889 3.00928 14.9105 2.73311 14.6208 2.44339C14.3536 2.16878 14.0284 1.95743 13.6689 1.82483C13.3769 1.7112 12.939 1.5765 12.1315 1.53963ZM7.72935 10.8293C8.31981 11.0751 8.97729 11.1083 9.5895 10.9232C10.2017 10.7381 10.7306 10.3462 11.086 9.8144C11.4413 9.28262 11.601 8.64397 11.5378 8.00752C11.4746 7.37107 11.1924 6.77632 10.7394 6.32483C10.4506 6.03623 10.1014 5.81524 9.71698 5.67779C9.33253 5.54033 8.9224 5.48982 8.51609 5.52989C8.10979 5.56997 7.71743 5.69963 7.36725 5.90955C7.01707 6.11946 6.71779 6.40441 6.49095 6.74387C6.26411 7.08333 6.11536 7.46886 6.05541 7.87271C5.99545 8.27656 6.02579 8.68868 6.14422 9.0794C6.26266 9.47012 6.46625 9.82972 6.74034 10.1323C7.01444 10.4349 7.35221 10.673 7.72935 10.8293ZM5.7781 5.26906C6.17318 4.87398 6.64222 4.56058 7.15842 4.34676C7.67463 4.13294 8.22789 4.02289 8.78662 4.02289C9.34536 4.02289 9.89862 4.13294 10.4148 4.34676C10.931 4.56058 11.4001 4.87398 11.7952 5.26906C12.1902 5.66415 12.5036 6.13318 12.7175 6.64939C12.9313 7.16559 13.0413 7.71886 13.0413 8.27759C13.0413 8.83633 12.9313 9.38959 12.7175 9.9058C12.5036 10.422 12.1902 10.891 11.7952 11.2861C10.9972 12.084 9.91504 12.5323 8.78662 12.5323C7.65821 12.5323 6.57601 12.084 5.7781 11.2861C4.98019 10.4882 4.53192 9.40601 4.53192 8.27759C4.53192 7.14917 4.98019 6.06697 5.7781 5.26906ZM13.985 4.65652C14.0829 4.56417 14.1612 4.4531 14.2154 4.32991C14.2697 4.20672 14.2986 4.07391 14.3006 3.93933C14.3025 3.80475 14.2775 3.67115 14.2269 3.54643C14.1763 3.42171 14.1012 3.30841 14.006 3.21324C13.9108 3.11807 13.7975 3.04296 13.6728 2.99236C13.5481 2.94176 13.4145 2.9167 13.2799 2.91867C13.1453 2.92063 13.0125 2.94957 12.8893 3.00378C12.7661 3.058 12.6551 3.13638 12.5627 3.23428C12.3831 3.42469 12.2848 3.6776 12.2886 3.93933C12.2924 4.20106 12.3981 4.451 12.5831 4.63609C12.7682 4.82118 13.0182 4.92684 13.2799 4.93066C13.5416 4.93448 13.7945 4.83614 13.985 4.65652Z" fill="white"/>
</svg>
